<svg width="1920" height="197" viewBox="0 0 1920 197" fill="none" xmlns="http://www.w3.org/2000/svg">
<path d="M964.706 99.5997C964.706 99.5997 964.625 99.6527 964.571 99.6791L963.927 98.3018C963.806 98.3548 963.685 98.4078 963.577 98.4607L963.215 97.0569C963.013 97.1099 962.812 97.1629 962.61 97.2026L962.516 95.8915C962.234 95.9047 961.965 95.9312 961.683 95.9445L961.804 94.7923C961.468 94.7525 961.132 94.7261 960.797 94.6863L961.052 93.746C960.675 93.6533 960.299 93.5606 959.923 93.4679L960.219 92.7395C959.829 92.5806 959.44 92.4349 959.05 92.276L959.345 91.7463C958.956 91.5344 958.553 91.3357 958.163 91.1238L958.419 90.753C958.029 90.5014 957.639 90.2497 957.25 89.9981L957.451 89.7465C883.214 32.468 821.793 13 772.665 13C722.152 13 684.859 33.607 660.315 54.1478C659.119 55.1543 657.964 56.1475 656.822 57.1541C636.698 44.1886 616.614 35.2624 598.491 29.1439C559.035 15.8076 528.795 15.6355 527.142 15.6355H527.075C526.941 15.6355 496.633 15.7679 458.091 26.1509C438.826 31.3423 417.493 39.1031 396.845 50.7044C389.08 55.0748 381.409 60.0014 373.98 65.524C367.988 68.4376 362.09 71.6028 356.367 75.0726C350.134 77.2313 344.035 79.5887 338.151 82.1712C331.474 83.3896 325.012 84.7272 318.819 86.184C311.686 86.0515 304.834 85.9058 298.399 85.7469H297.942C294.624 84.8331 291.36 83.8928 288.216 82.8996L287.477 82.6612L286.752 82.9128H286.725C286.55 82.979 285.717 83.2704 284.199 83.7339C282.063 82.5817 279.954 81.3898 277.899 80.1581L277.308 79.8006L276.609 79.827C276.609 79.827 274.567 79.9065 270.55 80.0919C269.489 79.2178 268.441 78.3305 267.407 77.43L267.017 77.0856L266.52 76.9399C266.52 76.9399 263.255 76.0261 256.982 74.8607C256.928 74.7945 256.861 74.7415 256.807 74.6753L256.579 74.4237L256.283 74.2515C256.176 74.1853 250.735 70.8611 240.216 66.9675C236.092 63.8818 229.751 59.6438 221.22 55.3794C205.086 47.3406 181.159 39.315 150.046 39.315C110.926 39.315 60.5208 52.0023 0 92.9249L2.60623 96.6729C2.60623 96.6729 2.6868 96.6199 2.74054 96.5934L3.38535 97.9707C3.50626 97.9178 3.62718 97.8648 3.73465 97.8118L4.0974 99.2156C4.29891 99.1627 4.50044 99.1097 4.70195 99.0699L4.796 100.381C5.07812 100.368 5.34679 100.341 5.62891 100.328L5.50797 101.48C5.84382 101.52 6.17967 101.546 6.51553 101.586L6.26027 102.527C6.63643 102.619 7.01262 102.712 7.38878 102.805L7.09318 103.533C7.48278 103.692 7.87236 103.838 8.26195 103.997L7.96644 104.526C8.35603 104.738 8.75906 104.937 9.14865 105.149L8.8934 105.52C9.28299 105.771 9.67257 106.023 10.0622 106.274L9.86061 106.526C84.0708 163.831 145.505 183.299 194.634 183.299C245.146 183.299 282.439 162.692 306.984 142.151C308.179 141.145 309.335 140.151 310.476 139.145C330.601 152.097 350.685 161.023 368.807 167.155C408.264 180.491 438.504 180.664 440.156 180.664H440.21C440.358 180.664 470.665 180.531 509.194 170.148C528.459 164.957 549.792 157.196 570.44 145.595C578.205 141.224 585.876 136.311 593.305 130.775C599.297 127.861 605.195 124.696 610.918 121.226C617.151 119.068 623.25 116.71 629.134 114.128C635.811 112.909 642.273 111.572 648.466 110.115C655.6 110.248 662.451 110.393 668.886 110.552H669.343C672.661 111.466 675.925 112.406 679.069 113.399L679.808 113.638L680.547 113.386H680.574C680.748 113.32 681.581 113.029 683.099 112.565C685.235 113.717 687.344 114.909 689.4 116.141L689.991 116.498L690.69 116.472C690.69 116.472 692.732 116.393 696.748 116.207C697.81 117.081 698.857 117.969 699.892 118.869L700.281 119.2L700.779 119.346C700.779 119.346 704.043 120.26 710.317 121.425C710.371 121.491 710.438 121.558 710.491 121.611L710.72 121.862L711.015 122.034C711.123 122.101 716.564 125.425 727.083 129.318C731.207 132.404 737.548 136.642 746.078 140.906C762.213 148.945 786.139 156.971 817.253 156.971C856.373 156.971 906.778 144.283 967.299 103.361L964.692 99.6129L964.706 99.5997ZM729.34 125.279C728.722 124.815 728.171 124.378 727.674 123.981C740.423 125.504 757.659 126.802 779.274 126.802C819.94 126.802 876.067 122.167 946.879 105.692C888.588 129.769 840.655 137.172 803.711 137.172C773.968 137.172 751.345 132.378 736.177 127.597C733.692 126.815 731.422 126.034 729.326 125.266L729.34 125.279ZM695.365 109.215C696.184 109.016 697.044 108.804 697.931 108.592C698.925 109.532 699.905 110.486 700.886 111.453C699.973 111.492 699.113 111.532 698.32 111.572C697.339 110.777 696.359 109.983 695.365 109.215ZM449.909 158.295H449.842C448.203 158.295 418.312 158.136 379.662 147.594C362.279 142.853 343.135 135.993 323.978 126.14C326.114 123.862 328.062 121.677 329.835 119.584C349.731 127.557 369.694 133.013 387.79 136.774C426.736 144.84 457.043 144.999 459.421 144.999H459.555C459.636 144.999 489.769 144.853 528.419 139.728C547.2 137.225 567.982 133.543 588.321 128.126C585.084 129.636 581.819 131.093 578.528 132.457C547.898 145.197 515.696 151.673 491.179 154.945C478.914 156.587 468.583 157.421 461.315 157.845C457.688 158.057 454.813 158.176 452.865 158.229C451.884 158.255 451.145 158.269 450.635 158.282C450.38 158.282 450.191 158.282 450.071 158.282C449.95 158.282 449.883 158.282 449.883 158.282L449.909 158.295ZM238.026 71.0201C238.644 71.4836 239.195 71.9206 239.692 72.3179C226.943 70.7949 209.707 69.4971 188.105 69.4971C147.44 69.4971 91.3118 74.1323 20.5004 90.6073C78.7912 66.5305 126.724 59.1273 163.668 59.1273C193.411 59.1273 216.034 63.9215 231.202 68.7024C233.687 69.4838 235.957 70.2652 238.053 71.0333L238.026 71.0201ZM272.001 87.0845C271.182 87.2832 270.322 87.4951 269.435 87.707C268.441 86.7667 267.46 85.8131 266.48 84.8464C267.393 84.8066 268.253 84.7669 269.046 84.7272C270.026 85.5218 271.007 86.3164 272.001 87.0845ZM517.443 35.7392L517.497 38.0039H517.523C519.162 38.0039 549.053 38.1628 587.703 48.7047C605.087 53.4459 624.231 60.306 643.388 70.1592C641.252 72.4371 639.304 74.6223 637.531 76.7148C617.635 68.7422 597.672 63.2858 579.576 59.5247C540.63 51.4593 510.323 51.3004 507.945 51.3004H507.797C507.73 51.3004 477.597 51.4328 438.947 56.5713C420.166 59.0744 399.384 62.7561 379.044 68.1727C382.282 66.6629 385.546 65.2061 388.838 63.8421C419.468 51.1017 451.669 44.6256 476.187 41.3545C488.452 39.7123 498.783 38.8779 506.051 38.4541C509.678 38.2422 512.553 38.123 514.501 38.0701C515.481 38.0436 516.22 38.0303 516.731 38.0171C516.986 38.0171 517.174 38.0171 517.295 38.0171C517.416 38.0171 517.483 38.0171 517.483 38.0171V35.7525L517.443 35.7392ZM722.743 118.79C721.803 117.545 720.876 116.3 719.922 115.081C758.062 113.174 833.307 109.095 944.044 101.692C874.415 117.757 819.227 122.273 779.261 122.273C754.542 122.273 735.654 120.551 722.73 118.776L722.743 118.79ZM707.052 111.175C705.803 109.89 704.54 108.619 703.264 107.374C704.459 107.109 705.709 106.831 707.012 106.566C708.275 108.023 709.538 109.493 710.787 111.002C709.753 111.055 708.758 111.095 707.805 111.148C707.549 111.148 707.308 111.175 707.066 111.188L707.052 111.175ZM459.555 140.469H459.434C457.271 140.469 427.233 140.324 388.744 132.338C371.253 128.722 352.042 123.465 332.898 115.916C334.792 113.572 336.445 111.426 337.828 109.532C357.926 115.148 378.238 118.975 396.697 121.584C435.253 127.027 465.668 127.173 468.932 127.173C469.12 127.173 469.214 127.173 469.214 127.173C469.255 127.173 499.293 127.027 537.997 124.511C557.826 123.213 579.912 121.293 601.42 118.459C600.694 119.081 599.969 119.703 599.23 120.313C575.451 127.597 550.195 132.285 527.801 135.251C508.63 137.794 491.542 139.105 479.263 139.781C473.124 140.112 468.18 140.297 464.781 140.39C463.075 140.43 461.772 140.456 460.872 140.469C459.985 140.483 459.528 140.483 459.528 140.483L459.555 140.469ZM244.609 77.5227C245.549 78.7676 246.476 80.0125 247.43 81.2309C209.291 83.1379 134.046 87.217 23.3082 94.6201C92.9374 78.5424 148.111 74.0396 188.078 74.0396C212.797 74.0396 231.685 75.7613 244.609 77.5359V77.5227ZM208.095 87.8262C225.747 86.8594 240.014 86.131 250.896 85.588C252.333 87.3626 253.771 89.0975 255.235 90.7927C227.413 96.355 181.253 102.805 116.904 102.805C90.0759 102.805 60.0775 101.679 26.9354 98.8978C105.74 93.6401 166.328 90.0908 208.081 87.8129L208.095 87.8262ZM260.3 85.1377C261.549 86.4223 262.826 87.6937 264.088 88.9386C262.893 89.2035 261.643 89.4816 260.34 89.7465C259.077 88.2897 257.815 86.8196 256.565 85.3099C257.6 85.2569 258.594 85.2172 259.548 85.1642C259.803 85.1642 260.045 85.1377 260.287 85.1245L260.3 85.1377ZM507.797 53.5783L507.824 55.8429H507.837H507.918C510.081 55.8429 540.12 55.9886 578.609 63.9745C596.1 67.59 615.311 72.8477 634.454 80.3965C632.56 82.7406 630.908 84.8861 629.524 86.7799C609.427 81.1646 589.114 77.3373 570.655 74.7283C532.099 69.2852 501.685 69.1395 498.42 69.1395C498.245 69.1395 498.151 69.1395 498.138 69.1395C498.138 69.1395 468.059 69.2852 429.355 71.8014C409.526 73.0993 387.441 75.0196 365.933 77.8538C366.658 77.2313 367.383 76.6221 368.122 75.9997C391.901 68.7157 417.157 64.0275 439.552 61.0609C458.722 58.5181 475.81 57.207 488.089 56.5316C494.229 56.2005 499.173 56.0151 502.571 55.9224C504.277 55.8827 505.58 55.8562 506.481 55.8429C507.367 55.8297 507.824 55.8297 507.824 55.8297V53.565L507.797 53.5783ZM693.591 85.9985C694.384 85.6277 695.163 85.2569 695.983 84.8861C719.613 74.172 754.851 63.6037 802.005 63.6037C837.955 63.6037 880.85 69.7619 930.811 86.7402C887.607 77.6948 849.723 74.2647 817.185 74.2647C763.637 74.2647 724.557 83.5088 699.811 92.0906C697.756 90.0114 695.687 87.9851 693.605 86.0118L693.591 85.9985ZM817.172 78.794C850.892 78.794 890.469 82.5155 935.903 92.4746C904.575 89.9716 876.081 88.9519 850.448 88.9519C783.815 88.9519 736.5 95.8518 708.691 101.573C706.905 99.56 705.104 97.5999 703.291 95.6796C727.674 87.4553 765.598 78.794 817.185 78.794H817.172ZM801.991 59.0611C753.373 59.0611 717.074 70.1592 692.906 81.2838C691.899 81.7474 690.958 82.2109 689.991 82.6612C687.721 80.5952 685.45 78.6086 683.166 76.6618C683.825 76.2645 684.483 75.8805 685.141 75.4832C708.651 61.7893 743.741 48.2676 790.895 48.2676C828 48.2676 872.601 56.6508 924.941 79.9992C877.652 64.7029 836.678 59.0479 801.978 59.0479L801.991 59.0611ZM685.598 84.8464C683.704 85.8131 681.904 86.7667 680.198 87.707C677.981 86.0515 675.737 84.4623 673.494 82.9128C675.267 81.6944 677.121 80.4495 679.082 79.2046C681.259 81.0322 683.435 82.9128 685.585 84.8596L685.598 84.8464ZM675.858 90.1835C674.206 91.1503 672.647 92.1038 671.197 93.0176C669.047 91.7727 666.898 90.5676 664.721 89.4021C666.226 88.2102 667.825 86.9786 669.558 85.7204C671.667 87.164 673.776 88.6605 675.858 90.1835ZM660.315 87.0845C658.045 85.9191 655.761 84.7934 653.464 83.6942C655.089 82.1182 656.849 80.4627 658.743 78.7676C661.014 80.1449 663.27 81.5487 665.514 83.0187C663.647 84.4093 661.914 85.7734 660.302 87.0713L660.315 87.0845ZM656.527 90.263C654.955 91.6271 653.558 92.8852 652.322 94.0374C650.132 93.256 647.942 92.4879 645.725 91.7463C646.988 90.3292 648.439 88.7665 650.038 87.1243C652.201 88.144 654.364 89.177 656.513 90.263H656.527ZM646.008 100.474C643.858 100.05 641.695 99.6394 639.532 99.2421C640.204 98.3416 641.198 97.0569 642.515 95.4809C644.584 96.1564 646.652 96.8583 648.708 97.5734C647.391 98.9243 646.491 99.9175 646.008 100.474ZM469.201 122.644C469.201 122.644 469.107 122.644 468.932 122.644C465.815 122.644 435.575 122.498 397.342 117.094C379.514 114.578 359.968 110.896 340.623 105.586C342.275 103.162 343.229 101.586 343.524 101.109C343.86 100.686 344.21 100.288 344.545 99.8778C364.629 102.924 385.13 104.977 403.884 106.38C441.688 109.201 472.344 109.347 477.96 109.347C478.564 109.347 478.874 109.347 478.874 109.347C478.874 109.347 480.029 109.347 482.178 109.334C488.64 109.307 504.076 109.254 524.133 109.254C548.771 109.254 580.382 109.334 610.918 109.625C609.749 110.791 608.567 111.943 607.384 113.068C584.009 116.393 559.478 118.578 537.701 119.995C518.424 121.253 501.295 121.915 488.989 122.259C482.836 122.432 477.893 122.524 474.48 122.577C472.774 122.604 471.458 122.617 470.571 122.63C469.684 122.63 469.214 122.63 469.214 122.63L469.201 122.644ZM321.345 95.8518C323.494 96.2756 325.657 96.6861 327.82 97.0834C327.148 97.984 326.154 99.2686 324.838 100.845C322.769 100.169 320.7 99.4673 318.644 98.7521C319.961 97.4013 320.861 96.408 321.345 95.8518ZM332.549 98.3813C332.697 98.2488 332.831 98.1297 332.979 97.9972C335.115 98.368 337.251 98.7256 339.4 99.0699C338.957 99.8116 337.802 101.652 335.948 104.288C333.798 103.665 331.649 103.017 329.513 102.354C331.165 100.302 332.173 98.8978 332.549 98.368V98.3813ZM337.398 94.1566C338.648 93.1103 339.924 92.0773 341.2 91.0708C342.786 91.0841 344.371 91.1106 345.969 91.1238C344.841 92.3952 343.726 93.6798 342.624 94.9909C340.878 94.7128 339.131 94.4479 337.398 94.1566ZM524.12 104.725C497.359 104.725 478.833 104.818 478.833 104.818C478.833 104.818 478.524 104.818 477.933 104.818C472.398 104.818 441.836 104.685 404.207 101.864C386.406 100.54 367.007 98.5932 347.958 95.7988C349.315 94.236 350.685 92.6998 352.095 91.19C383.975 91.5211 417.412 91.6006 443.219 91.6006C469.98 91.6006 488.506 91.5079 488.506 91.5079C488.506 91.5079 488.801 91.5079 489.392 91.5079C494.927 91.5079 525.49 91.6403 563.119 94.4612C580.919 95.7855 600.318 97.7323 619.368 100.527C618.011 102.089 616.641 103.626 615.23 105.135C583.351 104.804 549.913 104.725 524.106 104.725H524.12ZM498.138 71.4174L498.165 73.682C498.165 73.682 498.245 73.682 498.42 73.682C501.537 73.682 531.777 73.8277 569.997 79.2311C587.824 81.7474 607.371 85.4291 626.716 90.7397C625.064 93.1633 624.11 94.7393 623.814 95.2161C623.479 95.6399 623.129 96.0372 622.793 96.4477C602.709 93.4017 582.209 91.3489 563.455 89.9451C525.651 87.1242 494.994 86.9786 489.379 86.9786C488.788 86.9786 488.479 86.9786 488.465 86.9786C488.465 86.9786 487.31 86.9786 485.161 86.9918C478.699 87.0183 463.263 87.0713 443.206 87.0713C418.568 87.0713 386.957 86.9918 356.421 86.7005C357.59 85.535 358.772 84.3828 359.954 83.2571C383.33 79.933 407.861 77.7478 429.637 76.3307C448.915 75.0726 466.044 74.4104 478.35 74.0661C484.502 73.8939 489.446 73.8012 492.858 73.7482C494.564 73.7218 495.881 73.7085 496.768 73.6953C497.654 73.682 498.125 73.6953 498.125 73.6953V71.4306L498.138 71.4174ZM624.701 101.348C626.447 101.626 628.194 101.891 629.927 102.182C628.678 103.228 627.401 104.261 626.125 105.268C624.54 105.255 622.955 105.228 621.356 105.215C622.484 103.944 623.599 102.659 624.701 101.348ZM627.939 97.2688C628.382 96.5272 629.537 94.6863 631.391 92.0509C633.541 92.6733 635.69 93.3222 637.826 93.9844C636.174 96.0372 635.166 97.441 634.79 97.9707C634.656 98.1032 634.508 98.2224 634.36 98.3548C632.224 97.984 630.088 97.6264 627.939 97.2821V97.2688ZM640.997 90.21C638.74 89.4949 636.483 88.8194 634.226 88.1572C635.569 86.3694 637.128 84.3696 638.888 82.2241C641.144 83.1644 643.388 84.1312 645.632 85.1245C643.872 86.9653 642.327 88.687 640.997 90.21ZM352.27 84.4226C351.545 85.151 350.833 85.9058 350.107 86.6475C349.126 86.6475 348.146 86.621 347.165 86.621C347.998 86.025 348.844 85.4291 349.704 84.8464C350.564 84.7139 351.41 84.5682 352.27 84.4358V84.4226ZM331.555 93.1633C330.157 92.9117 328.787 92.6601 327.403 92.4084C328.344 91.9052 329.298 91.4284 330.251 90.9384C331.528 90.9516 332.804 90.9781 334.094 90.9914C333.247 91.7065 332.401 92.4349 331.555 93.1633ZM316.119 94.7923C315.501 95.4412 314.748 96.2093 313.875 97.0702C311.941 96.355 310.047 95.6001 308.139 94.8452C308.878 94.2493 309.455 93.7725 309.872 93.4017C311.941 93.8785 314.023 94.342 316.119 94.779V94.7923ZM310.194 100.54C309.052 101.573 307.803 102.672 306.433 103.838C304.404 102.765 302.403 101.679 300.401 100.54C301.691 99.6659 302.873 98.8448 303.907 98.0767C305.989 98.9243 308.085 99.7454 310.194 100.54ZM296.008 97.9972C294.235 96.9377 292.488 95.8518 290.742 94.7525C291.696 94.289 292.555 93.852 293.361 93.4414C295.229 94.3155 297.096 95.1631 298.99 95.9842C298.063 96.6331 297.083 97.2953 296.008 97.9972ZM291.722 100.712C290.406 101.52 289.009 102.354 287.517 103.202C285.637 101.758 283.756 100.288 281.902 98.7654C283.326 98.1694 284.629 97.5867 285.865 97.0304C287.8 98.2886 289.748 99.5202 291.709 100.712H291.722ZM283.178 105.626C281.593 106.473 279.9 107.347 278.154 108.221C276.193 106.38 274.231 104.513 272.283 102.566C273.976 101.944 275.588 101.321 277.119 100.725C279.121 102.394 281.15 104.036 283.178 105.626ZM273.747 110.353C272.955 110.724 272.176 111.095 271.356 111.466C247.726 122.18 212.488 132.748 165.334 132.748C129.384 132.748 86.4889 126.59 36.5408 109.625C79.745 118.67 117.616 122.101 150.167 122.101C203.715 122.101 242.795 112.856 267.541 104.275C269.596 106.354 271.665 108.38 273.747 110.353ZM268.79 99.017C267.124 97.2821 265.459 95.5074 263.806 93.6931C265.284 93.3752 266.681 93.0574 268.025 92.7395C269.731 94.3288 271.45 95.865 273.183 97.3748C271.773 97.9178 270.308 98.4607 268.777 99.017H268.79ZM258.648 94.779C260.434 96.7921 262.234 98.7521 264.048 100.672C239.665 108.897 201.74 117.558 150.153 117.558C116.434 117.558 76.8567 113.837 31.4224 103.877C62.7508 106.38 91.2447 107.4 116.877 107.4C183.51 107.4 230.825 100.5 258.634 94.779H258.648ZM165.347 137.291C213.966 137.291 250.265 126.193 274.433 115.068C275.44 114.605 276.381 114.141 277.348 113.691C279.618 115.757 281.889 117.743 284.172 119.69C283.514 120.087 282.856 120.472 282.198 120.869C258.688 134.563 223.598 148.084 176.444 148.084C139.339 148.084 94.7376 139.701 42.3982 116.353C89.6863 131.636 130.66 137.304 165.361 137.304L165.347 137.291ZM281.741 111.506C283.635 110.539 285.435 109.585 287.141 108.645C289.358 110.3 291.601 111.89 293.845 113.439C292.072 114.658 290.218 115.903 288.256 117.147C286.08 115.32 283.904 113.439 281.754 111.492L281.741 111.506ZM291.481 106.168C293.133 105.202 294.691 104.248 296.142 103.334C298.292 104.579 300.441 105.784 302.617 106.95C301.113 108.142 299.514 109.373 297.781 110.632C295.672 109.188 293.563 107.692 291.481 106.168ZM307.024 109.268C309.294 110.433 311.578 111.559 313.875 112.658C312.25 114.234 310.49 115.889 308.596 117.584C306.325 116.207 304.068 114.803 301.825 113.333C303.692 111.943 305.425 110.579 307.037 109.281L307.024 109.268ZM310.812 106.089C312.384 104.725 313.781 103.467 315.017 102.315C317.207 103.096 319.397 103.864 321.613 104.606C320.337 106.023 318.9 107.586 317.301 109.228C315.138 108.208 312.975 107.175 310.826 106.089H310.812ZM326.342 106.155C328.599 106.87 330.856 107.546 333.113 108.208C331.77 109.996 330.211 111.996 328.451 114.141C326.194 113.214 323.951 112.234 321.707 111.241C323.467 109.4 325.012 107.678 326.342 106.155ZM615.069 111.943C615.794 111.214 616.506 110.459 617.232 109.718C618.212 109.718 619.193 109.744 620.174 109.744C619.327 110.34 618.494 110.936 617.635 111.519C616.775 111.651 615.929 111.797 615.069 111.929V111.943ZM635.784 103.202C637.181 103.454 638.552 103.705 639.935 103.957C638.995 104.46 638.041 104.937 637.087 105.427C635.811 105.414 634.535 105.387 633.245 105.374C634.091 104.659 634.938 103.93 635.784 103.202ZM651.22 101.573C651.838 100.924 652.59 100.156 653.464 99.2951C655.398 100.01 657.292 100.765 659.2 101.52C658.461 102.116 657.883 102.593 657.467 102.964C655.398 102.487 653.316 102.023 651.22 101.586V101.573ZM657.145 95.8253C658.286 94.7923 659.536 93.6931 660.906 92.5276C662.935 93.6004 664.936 94.6863 666.938 95.8253C665.648 96.6993 664.466 97.5205 663.432 98.2886C661.349 97.441 659.254 96.6199 657.145 95.8253ZM671.331 98.368C673.104 99.4275 674.851 100.514 676.597 101.613C675.643 102.076 674.784 102.513 673.978 102.924C672.11 102.05 670.243 101.202 668.349 100.381C669.276 99.7321 670.256 99.0699 671.331 98.368ZM675.616 95.6531C676.933 94.8453 678.33 94.0109 679.821 93.1633C681.702 94.6069 683.583 96.0769 685.437 97.5999C684.013 98.1959 682.71 98.7786 681.474 99.3348C679.539 98.0767 677.591 96.845 675.616 95.6531ZM684.161 90.7397C685.746 89.8922 687.438 89.0181 689.185 88.144C691.146 89.9849 693.108 91.8522 695.056 93.799C693.363 94.4215 691.751 95.0439 690.219 95.6399C688.218 93.9712 686.189 92.329 684.161 90.7397ZM698.548 97.3615C700.214 99.0964 701.88 100.871 703.533 102.685C702.055 103.003 700.658 103.321 699.314 103.639C697.608 102.05 695.889 100.513 694.156 99.0037C695.566 98.4607 697.03 97.9178 698.562 97.3615H698.548ZM712.117 105.533C739.939 99.9705 786.099 93.5209 850.448 93.5209C877.276 93.5209 907.275 94.6466 940.417 97.4277C861.612 102.685 801.024 106.235 759.257 108.513C741.605 109.479 727.338 110.208 716.456 110.751C715.019 108.976 713.581 107.241 712.117 105.546V105.533ZM790.908 43.7648C742.089 43.7648 705.763 58.0149 681.675 72.2782C680.923 72.7285 680.184 73.1655 679.459 73.6158C677.04 71.6558 674.622 69.7487 672.191 67.9211C673.01 67.3119 673.843 66.7159 674.703 66.1067C698.387 49.3933 733.733 32.9448 781.397 32.9448C819.227 32.9448 864.904 43.3278 918.734 72.3577C869.35 51.4593 826.777 43.7648 790.922 43.7648H790.908ZM675.388 76.1718C673.306 77.5227 671.318 78.8603 669.45 80.1846C667.099 78.6219 664.721 77.1121 662.357 75.6553C664.251 74.0528 666.266 72.4106 668.402 70.7684C670.74 72.5166 673.077 74.3045 675.388 76.1718ZM658.233 73.1655C655.788 71.722 653.329 70.3314 650.871 68.9938C652.859 66.994 654.995 64.9545 657.238 62.9018C659.683 64.5307 662.129 66.2127 664.56 67.9608C662.317 69.7222 660.208 71.4571 658.219 73.1655H658.233ZM654.646 76.3307C652.617 78.1584 650.75 79.9462 649.044 81.6414C646.693 80.5819 644.342 79.5489 641.977 78.5557C643.683 76.5824 645.551 74.5164 647.579 72.3842C649.944 73.6555 652.295 74.9667 654.646 76.3307ZM320.982 90.7662C320.821 90.8589 320.646 90.9516 320.485 91.0443C320.055 90.9516 319.625 90.8589 319.182 90.7795C319.236 90.7795 319.276 90.753 319.33 90.7397C319.88 90.7397 320.431 90.753 320.982 90.7662ZM304.297 92.0641C303.988 92.3157 303.652 92.5674 303.303 92.8322C301.637 92.1303 299.971 91.4284 298.332 90.7C298.399 90.6603 298.453 90.6206 298.52 90.5808C300.414 91.0841 302.349 91.5741 304.297 92.0509V92.0641ZM288.189 90.9119C287.598 91.2033 286.967 91.4946 286.308 91.8125C284.965 90.9119 283.635 89.9981 282.305 89.0578C282.829 88.9121 283.299 88.7665 283.756 88.634C285.22 89.4021 286.698 90.1703 288.189 90.9119ZM281.432 93.9977C280.344 94.4744 279.188 94.9512 277.993 95.4412C276.461 94.1301 274.93 92.7793 273.425 91.4019C274.567 91.1238 275.642 90.8457 276.663 90.5808C278.248 91.7463 279.833 92.872 281.445 93.9844L281.432 93.9977ZM256.189 80.7938C255.168 80.8468 254.12 80.8998 253.019 80.9528C252.374 80.1449 251.742 79.3238 251.098 78.4894C252.36 78.6881 253.543 78.9 254.631 79.0854C255.141 79.6549 255.665 80.2243 256.189 80.7938ZM176.444 152.561C225.264 152.561 261.59 138.311 285.677 124.047C286.429 123.597 287.168 123.16 287.894 122.71C290.312 124.67 292.73 126.577 295.161 128.404C294.342 129.014 293.509 129.61 292.649 130.219C268.965 146.932 233.62 163.381 185.955 163.381C148.125 163.381 102.449 152.998 48.6182 123.968C98.0021 144.866 140.575 152.561 176.431 152.561H176.444ZM291.964 120.154C294.046 118.803 296.035 117.465 297.902 116.141C300.253 117.704 302.631 119.213 304.995 120.67C303.101 122.273 301.086 123.915 298.95 125.557C296.612 123.809 294.275 122.021 291.964 120.154ZM309.12 123.16C311.565 124.604 314.023 125.994 316.481 127.332C314.493 129.332 312.357 131.371 310.114 133.424C307.669 131.795 305.224 130.113 302.792 128.365C305.036 126.603 307.145 124.868 309.133 123.16H309.12ZM312.706 119.995C314.735 118.154 316.602 116.379 318.309 114.684C320.66 115.744 323.011 116.777 325.362 117.77C323.655 119.743 321.788 121.809 319.759 123.941C317.395 122.67 315.044 121.359 312.693 119.995H312.706ZM646.37 105.559C646.531 105.467 646.706 105.374 646.867 105.281C647.297 105.374 647.727 105.467 648.17 105.546C648.117 105.546 648.076 105.573 648.023 105.586C647.472 105.586 646.921 105.573 646.37 105.559ZM663.056 104.261C663.365 104.01 663.7 103.758 664.05 103.493C665.716 104.195 667.381 104.897 669.02 105.626C668.953 105.665 668.899 105.705 668.832 105.745C666.938 105.241 665.004 104.751 663.056 104.275V104.261ZM679.163 105.414C679.754 105.122 680.386 104.831 681.044 104.513C682.387 105.414 683.717 106.327 685.047 107.268C684.523 107.413 684.053 107.559 683.596 107.692C682.132 106.923 680.654 106.155 679.163 105.414ZM685.92 102.328C687.009 101.851 688.164 101.374 689.36 100.884C690.891 102.195 692.423 103.546 693.927 104.924C692.785 105.202 691.711 105.48 690.69 105.745C689.104 104.579 687.519 103.454 685.907 102.341L685.92 102.328ZM711.163 115.532C712.184 115.479 713.232 115.426 714.334 115.373C714.978 116.181 715.61 117.002 716.255 117.836C714.992 117.637 713.81 117.426 712.722 117.24C712.211 116.671 711.687 116.101 711.163 115.532ZM664.412 56.6905C688.406 36.9444 724.208 17.569 772.651 17.5558C810.952 17.5558 857.286 29.7001 912.017 63.6831C861.464 37.8847 817.965 28.389 781.397 28.389C731.852 28.389 695.136 45.8043 670.874 63.2196C670.014 63.8288 669.181 64.4513 668.349 65.0605C665.823 63.2329 663.297 61.4582 660.758 59.763C661.941 58.73 663.15 57.697 664.412 56.6773V56.6905ZM485.926 24.6146C498.138 22.4427 508.455 21.3302 515.71 20.774C519.337 20.4959 522.185 20.3502 524.133 20.2707C525.1 20.231 525.853 20.2177 526.35 20.2045C526.605 20.2045 526.793 20.2045 526.914 20.2045C527.035 20.2045 527.089 20.2045 527.089 20.2045V17.9399L527.156 20.2045L527.102 18.7345L527.129 20.2045C528.432 20.2045 558.202 20.3634 596.986 33.4746C614.505 39.4077 633.863 47.9763 653.289 60.359C650.938 62.5309 648.721 64.6764 646.666 66.7821C626.783 56.4257 606.901 49.2874 588.926 44.374C549.698 33.6732 519.444 33.5143 517.523 33.501H517.429C517.335 33.501 487.108 33.6335 448.512 41.381C432.445 44.6124 414.927 49.1814 397.516 55.6046C398.054 55.3 398.591 54.9821 399.142 54.6775C429.476 37.6065 461.503 28.9717 485.94 24.6279L485.926 24.6146ZM276.166 84.4358C276.797 84.8066 277.455 85.1642 278.1 85.535C277.939 85.5748 277.764 85.6277 277.59 85.6675C277.052 85.2701 276.528 84.8464 275.991 84.4358C276.045 84.4358 276.112 84.4358 276.152 84.4358H276.166ZM219.178 59.4982C220.763 60.2928 222.254 61.0742 223.692 61.8555C208.672 57.9354 188.602 54.6113 163.641 54.6113C126.026 54.6113 77.3672 62.1734 18.4451 86.5415C71.295 54.1345 115.399 43.9105 150.086 43.9105C180.394 43.9105 203.568 51.7109 219.178 59.4849V59.4982ZM302.926 139.675C278.933 159.421 243.131 178.796 194.688 178.809C156.387 178.809 110.066 166.665 55.3352 132.682C105.888 158.467 149.388 167.976 185.942 167.976C235.487 167.976 272.203 150.561 296.465 133.146C297.324 132.536 298.157 131.914 298.99 131.305C301.516 133.132 304.041 134.907 306.581 136.602C305.398 137.635 304.189 138.655 302.926 139.688V139.675ZM481.413 171.751C469.201 173.923 458.883 175.035 451.629 175.591C448.002 175.869 445.154 176.015 443.206 176.095C442.239 176.134 441.486 176.148 440.989 176.161C440.734 176.161 440.546 176.161 440.425 176.161C440.304 176.161 440.25 176.161 440.25 176.161H440.197C438.893 176.161 409.123 176.002 370.339 162.891C352.821 156.958 333.462 148.389 314.036 136.006C316.387 133.834 318.604 131.689 320.66 129.583C340.542 139.94 360.425 147.078 378.399 151.991C417.627 162.692 447.881 162.851 449.802 162.864H449.883C450.003 162.864 480.217 162.732 518.813 154.984C534.88 151.753 552.398 147.184 569.809 140.761C569.272 141.065 568.734 141.383 568.184 141.688C537.849 158.759 505.822 167.394 481.386 171.737L481.413 171.751ZM691.173 111.929C690.542 111.559 689.884 111.201 689.239 110.83C689.4 110.791 689.575 110.738 689.749 110.698C690.287 111.095 690.81 111.519 691.348 111.929C691.294 111.929 691.227 111.929 691.187 111.929H691.173ZM748.161 136.867C746.576 136.072 745.084 135.291 743.647 134.496C758.666 138.417 778.737 141.741 803.698 141.741C841.313 141.741 889.972 134.179 948.894 109.81C896.044 142.217 851.94 152.442 817.253 152.442C786.945 152.442 763.771 144.641 748.161 136.867Z" fill="url(#paint0_linear_4545_22639)"/>
<path d="M1917.41 99.5997C1917.41 99.5997 1917.33 99.6527 1917.27 99.6791L1916.63 98.3018C1916.51 98.3548 1916.39 98.4078 1916.28 98.4607L1915.92 97.0569C1915.71 97.1099 1915.51 97.1629 1915.31 97.2026L1915.22 95.8915C1914.94 95.9047 1914.67 95.9312 1914.38 95.9445L1914.51 94.7923C1914.17 94.7525 1913.83 94.7261 1913.5 94.6863L1913.75 93.746C1913.38 93.6533 1913 93.5606 1912.62 93.4679L1912.92 92.7395C1912.53 92.5806 1912.14 92.4349 1911.75 92.276L1912.05 91.7463C1911.66 91.5344 1911.25 91.3357 1910.86 91.1238L1911.12 90.753C1910.73 90.5014 1910.34 90.2497 1909.95 89.9981L1910.15 89.7465C1835.92 32.468 1774.49 13 1725.37 13C1674.85 13 1637.56 33.607 1613.02 54.1478C1611.82 55.1543 1610.67 56.1475 1609.52 57.1541C1589.4 44.1886 1569.31 35.2624 1551.19 29.1439C1511.74 15.8076 1481.5 15.6355 1479.84 15.6355H1479.78C1479.64 15.6355 1449.33 15.7679 1410.79 26.1509C1391.53 31.3423 1370.19 39.1031 1349.55 50.7044C1341.78 55.0748 1334.11 60.0014 1326.68 65.524C1320.69 68.4376 1314.79 71.6028 1309.07 75.0726C1302.84 77.2313 1296.74 79.5887 1290.85 82.1712C1284.18 83.3896 1277.71 84.7272 1271.52 86.184C1264.39 86.0515 1257.54 85.9058 1251.1 85.7469H1250.64C1247.33 84.8331 1244.06 83.8928 1240.92 82.8996L1240.18 82.6612L1239.45 82.9128H1239.43C1239.25 82.979 1238.42 83.2704 1236.9 83.7339C1234.76 82.5817 1232.66 81.3898 1230.6 80.1581L1230.01 79.8006L1229.31 79.827C1229.31 79.827 1227.27 79.9065 1223.25 80.0919C1222.19 79.2178 1221.14 78.3305 1220.11 77.43L1219.72 77.0856L1219.22 76.9399C1219.22 76.9399 1215.96 76.0261 1209.68 74.8607C1209.63 74.7945 1209.56 74.7415 1209.51 74.6753L1209.28 74.4237L1208.98 74.2515C1208.88 74.1853 1203.44 70.8611 1192.92 66.9675C1188.79 63.8818 1182.45 59.6438 1173.92 55.3794C1157.79 47.3406 1133.86 39.315 1102.75 39.315C1063.63 39.315 1013.22 52.0023 952.701 92.9249L955.307 96.6729C955.307 96.6729 955.388 96.6199 955.442 96.5934L956.087 97.9707C956.207 97.9178 956.328 97.8648 956.436 97.8118L956.799 99.2156C957 99.1627 957.202 99.1097 957.403 99.0699L957.497 100.381C957.779 100.368 958.048 100.341 958.33 100.328L958.209 101.48C958.545 101.52 958.881 101.546 959.217 101.586L958.961 102.527C959.338 102.619 959.714 102.712 960.09 102.805L959.794 103.533C960.184 103.692 960.574 103.838 960.963 103.997L960.668 104.526C961.057 104.738 961.46 104.937 961.85 105.149L961.595 105.52C961.984 105.771 962.374 106.023 962.763 106.274L962.562 106.526C1036.77 163.831 1098.21 183.299 1147.34 183.299C1197.85 183.299 1235.14 162.692 1259.68 142.151C1260.88 141.145 1262.04 140.151 1263.18 139.145C1283.3 152.097 1303.39 161.023 1321.51 167.155C1360.96 180.491 1391.2 180.664 1392.86 180.664H1392.91C1393.06 180.664 1423.37 180.531 1461.9 170.148C1481.16 164.957 1502.49 157.196 1523.14 145.595C1530.91 141.224 1538.58 136.311 1546.01 130.775C1552 127.861 1557.9 124.696 1563.62 121.226C1569.85 119.068 1575.95 116.71 1581.84 114.128C1588.51 112.909 1594.97 111.572 1601.17 110.115C1608.3 110.248 1615.15 110.393 1621.59 110.552H1622.04C1625.36 111.466 1628.63 112.406 1631.77 113.399L1632.51 113.638L1633.25 113.386H1633.27C1633.45 113.32 1634.28 113.029 1635.8 112.565C1637.94 113.717 1640.05 114.909 1642.1 116.141L1642.69 116.498L1643.39 116.472C1643.39 116.472 1645.43 116.393 1649.45 116.207C1650.51 117.081 1651.56 117.969 1652.59 118.869L1652.98 119.2L1653.48 119.346C1653.48 119.346 1656.74 120.26 1663.02 121.425C1663.07 121.491 1663.14 121.558 1663.19 121.611L1663.42 121.862L1663.72 122.034C1663.82 122.101 1669.26 125.425 1679.78 129.318C1683.91 132.404 1690.25 136.642 1698.78 140.906C1714.91 148.945 1738.84 156.971 1769.95 156.971C1809.07 156.971 1859.48 144.283 1920 103.361L1917.39 99.6129L1917.41 99.5997ZM1682.04 125.279C1681.42 124.815 1680.87 124.378 1680.37 123.981C1693.12 125.504 1710.36 126.802 1731.98 126.802C1772.64 126.802 1828.77 122.167 1899.58 105.692C1841.29 129.769 1793.36 137.172 1756.41 137.172C1726.67 137.172 1704.05 132.378 1688.88 127.597C1686.39 126.815 1684.12 126.034 1682.03 125.266L1682.04 125.279ZM1648.07 109.215C1648.89 109.016 1649.75 108.804 1650.63 108.592C1651.63 109.532 1652.61 110.486 1653.59 111.453C1652.67 111.492 1651.81 111.532 1651.02 111.572C1650.04 110.777 1649.06 109.983 1648.07 109.215ZM1402.61 158.295H1402.54C1400.9 158.295 1371.01 158.136 1332.36 147.594C1314.98 142.853 1295.84 135.993 1276.68 126.14C1278.81 123.862 1280.76 121.677 1282.54 119.584C1302.43 127.557 1322.4 133.013 1340.49 136.774C1379.44 144.84 1409.74 144.999 1412.12 144.999H1412.26C1412.34 144.999 1442.47 144.853 1481.12 139.728C1499.9 137.225 1520.68 133.543 1541.02 128.126C1537.78 129.636 1534.52 131.093 1531.23 132.457C1500.6 145.197 1468.4 151.673 1443.88 154.945C1431.61 156.587 1421.28 157.421 1414.02 157.845C1410.39 158.057 1407.51 158.176 1405.57 158.229C1404.59 158.255 1403.85 158.269 1403.34 158.282C1403.08 158.282 1402.89 158.282 1402.77 158.282C1402.65 158.282 1402.58 158.282 1402.58 158.282L1402.61 158.295ZM1190.73 71.0201C1191.35 71.4836 1191.9 71.9206 1192.39 72.3179C1179.64 70.7949 1162.41 69.4971 1140.81 69.4971C1100.14 69.4971 1044.01 74.1323 973.202 90.6073C1031.49 66.5305 1079.43 59.1273 1116.37 59.1273C1146.11 59.1273 1168.74 63.9215 1183.9 68.7024C1186.39 69.4838 1188.66 70.2652 1190.75 71.0333L1190.73 71.0201ZM1224.7 87.0845C1223.88 87.2832 1223.02 87.4951 1222.14 87.707C1221.14 86.7667 1220.16 85.8131 1219.18 84.8464C1220.09 84.8066 1220.95 84.7669 1221.75 84.7272C1222.73 85.5218 1223.71 86.3164 1224.7 87.0845ZM1470.14 35.7392L1470.2 38.0039H1470.22C1471.86 38.0039 1501.75 38.1628 1540.4 48.7047C1557.79 53.4459 1576.93 60.306 1596.09 70.1592C1593.95 72.4371 1592.01 74.6223 1590.23 76.7148C1570.34 68.7422 1550.37 63.2858 1532.28 59.5247C1493.33 51.4593 1463.02 51.3004 1460.65 51.3004H1460.5C1460.43 51.3004 1430.3 51.4328 1391.65 56.5713C1372.87 59.0744 1352.08 62.7561 1331.75 68.1727C1334.98 66.6629 1338.25 65.2061 1341.54 63.8421C1372.17 51.1017 1404.37 44.6256 1428.89 41.3545C1441.15 39.7123 1451.48 38.8779 1458.75 38.4541C1462.38 38.2422 1465.25 38.123 1467.2 38.0701C1468.18 38.0436 1468.92 38.0303 1469.43 38.0171C1469.69 38.0171 1469.88 38.0171 1470 38.0171C1470.12 38.0171 1470.18 38.0171 1470.18 38.0171V35.7525L1470.14 35.7392ZM1675.44 118.79C1674.5 117.545 1673.58 116.3 1672.62 115.081C1710.76 113.174 1786.01 109.095 1896.75 101.692C1827.12 117.757 1771.93 122.273 1731.96 122.273C1707.24 122.273 1688.35 120.551 1675.43 118.776L1675.44 118.79ZM1659.75 111.175C1658.5 109.89 1657.24 108.619 1655.97 107.374C1657.16 107.109 1658.41 106.831 1659.71 106.566C1660.98 108.023 1662.24 109.493 1663.49 111.002C1662.45 111.055 1661.46 111.095 1660.51 111.148C1660.25 111.148 1660.01 111.175 1659.77 111.188L1659.75 111.175ZM1412.26 140.469H1412.14C1409.97 140.469 1379.93 140.324 1341.44 132.338C1323.95 128.722 1304.74 123.465 1285.6 115.916C1287.49 113.572 1289.15 111.426 1290.53 109.532C1310.63 115.148 1330.94 118.975 1349.4 121.584C1387.95 127.027 1418.37 127.173 1421.63 127.173C1421.82 127.173 1421.92 127.173 1421.92 127.173C1421.96 127.173 1451.99 127.027 1490.7 124.511C1510.53 123.213 1532.61 121.293 1554.12 118.459C1553.4 119.081 1552.67 119.703 1551.93 120.313C1528.15 127.597 1502.9 132.285 1480.5 135.251C1461.33 137.794 1444.24 139.105 1431.96 139.781C1425.82 140.112 1420.88 140.297 1417.48 140.39C1415.78 140.43 1414.47 140.456 1413.57 140.469C1412.69 140.483 1412.23 140.483 1412.23 140.483L1412.26 140.469ZM1197.31 77.5227C1198.25 78.7676 1199.18 80.0125 1200.13 81.2309C1161.99 83.1379 1086.75 87.217 976.009 94.6201C1045.64 78.5424 1100.81 74.0396 1140.78 74.0396C1165.5 74.0396 1184.39 75.7613 1197.31 77.5359V77.5227ZM1160.8 87.8262C1178.45 86.8594 1192.72 86.131 1203.6 85.588C1205.03 87.3626 1206.47 89.0975 1207.94 90.7927C1180.11 96.355 1133.95 102.805 1069.61 102.805C1042.78 102.805 1012.78 101.679 979.637 98.8978C1058.44 93.6401 1119.03 90.0908 1160.78 87.8129L1160.8 87.8262ZM1213 85.1377C1214.25 86.4223 1215.53 87.6937 1216.79 88.9386C1215.59 89.2035 1214.34 89.4816 1213.04 89.7465C1211.78 88.2897 1210.52 86.8196 1209.27 85.3099C1210.3 85.2569 1211.29 85.2172 1212.25 85.1642C1212.5 85.1642 1212.75 85.1377 1212.99 85.1245L1213 85.1377ZM1460.5 53.5783L1460.53 55.8429H1460.54H1460.62C1462.78 55.8429 1492.82 55.9886 1531.31 63.9745C1548.8 67.59 1568.01 72.8477 1587.16 80.3965C1585.26 82.7406 1583.61 84.8861 1582.23 86.7799C1562.13 81.1646 1541.82 77.3373 1523.36 74.7283C1484.8 69.2852 1454.39 69.1395 1451.12 69.1395C1450.95 69.1395 1450.85 69.1395 1450.84 69.1395C1450.84 69.1395 1420.76 69.2852 1382.06 71.8014C1362.23 73.0993 1340.14 75.0196 1318.63 77.8538C1319.36 77.2313 1320.08 76.6221 1320.82 75.9997C1344.6 68.7157 1369.86 64.0275 1392.25 61.0609C1411.42 58.5181 1428.51 57.207 1440.79 56.5316C1446.93 56.2005 1451.87 56.0151 1455.27 55.9224C1456.98 55.8827 1458.28 55.8562 1459.18 55.8429C1460.07 55.8297 1460.53 55.8297 1460.53 55.8297V53.565L1460.5 53.5783ZM1646.29 85.9985C1647.09 85.6277 1647.86 85.2569 1648.68 84.8861C1672.31 74.172 1707.55 63.6037 1754.71 63.6037C1790.66 63.6037 1833.55 69.7619 1883.51 86.7402C1840.31 77.6948 1802.42 74.2647 1769.89 74.2647C1716.34 74.2647 1677.26 83.5088 1652.51 92.0906C1650.46 90.0114 1648.39 87.9851 1646.31 86.0118L1646.29 85.9985ZM1769.87 78.794C1803.59 78.794 1843.17 82.5155 1888.6 92.4746C1857.28 89.9716 1828.78 88.9519 1803.15 88.9519C1736.52 88.9519 1689.2 95.8518 1661.39 101.573C1659.61 99.56 1657.81 97.5999 1655.99 95.6796C1680.37 87.4553 1718.3 78.794 1769.89 78.794H1769.87ZM1754.69 59.0611C1706.07 59.0611 1669.78 70.1592 1645.61 81.2838C1644.6 81.7474 1643.66 82.2109 1642.69 82.6612C1640.42 80.5952 1638.15 78.6086 1635.87 76.6618C1636.53 76.2645 1637.18 75.8805 1637.84 75.4832C1661.35 61.7893 1696.44 48.2676 1743.6 48.2676C1780.7 48.2676 1825.3 56.6508 1877.64 79.9992C1830.35 64.7029 1789.38 59.0479 1754.68 59.0479L1754.69 59.0611ZM1638.3 84.8464C1636.41 85.8131 1634.6 86.7667 1632.9 87.707C1630.68 86.0515 1628.44 84.4623 1626.2 82.9128C1627.97 81.6944 1629.82 80.4495 1631.78 79.2046C1633.96 81.0322 1636.14 82.9128 1638.29 84.8596L1638.3 84.8464ZM1628.56 90.1835C1626.91 91.1503 1625.35 92.1038 1623.9 93.0176C1621.75 91.7727 1619.6 90.5676 1617.42 89.4021C1618.93 88.2102 1620.53 86.9786 1622.26 85.7204C1624.37 87.164 1626.48 88.6605 1628.56 90.1835ZM1613.02 87.0845C1610.75 85.9191 1608.46 84.7934 1606.16 83.6942C1607.79 82.1182 1609.55 80.4627 1611.44 78.7676C1613.71 80.1449 1615.97 81.5487 1618.22 83.0187C1616.35 84.4093 1614.61 85.7734 1613 87.0713L1613.02 87.0845ZM1609.23 90.263C1607.66 91.6271 1606.26 92.8852 1605.02 94.0374C1602.83 93.256 1600.64 92.4879 1598.43 91.7463C1599.69 90.3292 1601.14 88.7665 1602.74 87.1243C1604.9 88.144 1607.06 89.177 1609.21 90.263H1609.23ZM1598.71 100.474C1596.56 100.05 1594.4 99.6394 1592.23 99.2421C1592.91 98.3416 1593.9 97.0569 1595.22 95.4809C1597.28 96.1564 1599.35 96.8583 1601.41 97.5734C1600.09 98.9243 1599.19 99.9175 1598.71 100.474ZM1421.9 122.644C1421.9 122.644 1421.81 122.644 1421.63 122.644C1418.52 122.644 1388.28 122.498 1350.04 117.094C1332.22 114.578 1312.67 110.896 1293.32 105.586C1294.98 103.162 1295.93 101.586 1296.23 101.109C1296.56 100.686 1296.91 100.288 1297.25 99.8778C1317.33 102.924 1337.83 104.977 1356.59 106.38C1394.39 109.201 1425.05 109.347 1430.66 109.347C1431.27 109.347 1431.57 109.347 1431.57 109.347C1431.57 109.347 1432.73 109.347 1434.88 109.334C1441.34 109.307 1456.78 109.254 1476.83 109.254C1501.47 109.254 1533.08 109.334 1563.62 109.625C1562.45 110.791 1561.27 111.943 1560.09 113.068C1536.71 116.393 1512.18 118.578 1490.4 119.995C1471.12 121.253 1454 121.915 1441.69 122.259C1435.54 122.432 1430.59 122.524 1427.18 122.577C1425.48 122.604 1424.16 122.617 1423.27 122.63C1422.39 122.63 1421.92 122.63 1421.92 122.63L1421.9 122.644ZM1274.05 95.8518C1276.2 96.2756 1278.36 96.6861 1280.52 97.0834C1279.85 97.984 1278.86 99.2686 1277.54 100.845C1275.47 100.169 1273.4 99.4673 1271.35 98.7521C1272.66 97.4013 1273.56 96.408 1274.05 95.8518ZM1285.25 98.3813C1285.4 98.2488 1285.53 98.1297 1285.68 97.9972C1287.82 98.368 1289.95 98.7256 1292.1 99.0699C1291.66 99.8116 1290.5 101.652 1288.65 104.288C1286.5 103.665 1284.35 103.017 1282.21 102.354C1283.87 100.302 1284.87 98.8978 1285.25 98.368V98.3813ZM1290.1 94.1566C1291.35 93.1103 1292.63 92.0773 1293.9 91.0708C1295.49 91.0841 1297.07 91.1106 1298.67 91.1238C1297.54 92.3952 1296.43 93.6798 1295.33 94.9909C1293.58 94.7128 1291.83 94.4479 1290.1 94.1566ZM1476.82 104.725C1450.06 104.725 1431.53 104.818 1431.53 104.818C1431.53 104.818 1431.23 104.818 1430.63 104.818C1425.1 104.818 1394.54 104.685 1356.91 101.864C1339.11 100.54 1319.71 98.5932 1300.66 95.7988C1302.02 94.236 1303.39 92.6998 1304.8 91.19C1336.68 91.5211 1370.11 91.6006 1395.92 91.6006C1422.68 91.6006 1441.21 91.5079 1441.21 91.5079C1441.21 91.5079 1441.5 91.5079 1442.09 91.5079C1447.63 91.5079 1478.19 91.6403 1515.82 94.4612C1533.62 95.7855 1553.02 97.7323 1572.07 100.527C1570.71 102.089 1569.34 103.626 1567.93 105.135C1536.05 104.804 1502.61 104.725 1476.81 104.725H1476.82ZM1450.84 71.4174L1450.87 73.682C1450.87 73.682 1450.95 73.682 1451.12 73.682C1454.24 73.682 1484.48 73.8277 1522.7 79.2311C1540.53 81.7474 1560.07 85.4291 1579.42 90.7397C1577.76 93.1633 1576.81 94.7393 1576.52 95.2161C1576.18 95.6399 1575.83 96.0372 1575.49 96.4477C1555.41 93.4017 1534.91 91.3489 1516.16 89.9451C1478.35 87.1242 1447.7 86.9786 1442.08 86.9786C1441.49 86.9786 1441.18 86.9786 1441.17 86.9786C1441.17 86.9786 1440.01 86.9786 1437.86 86.9918C1431.4 87.0183 1415.96 87.0713 1395.91 87.0713C1371.27 87.0713 1339.66 86.9918 1309.12 86.7005C1310.29 85.535 1311.47 84.3828 1312.66 83.2571C1336.03 79.933 1360.56 77.7478 1382.34 76.3307C1401.62 75.0726 1418.75 74.4104 1431.05 74.0661C1437.2 73.8939 1442.15 73.8012 1445.56 73.7482C1447.27 73.7218 1448.58 73.7085 1449.47 73.6953C1450.36 73.682 1450.83 73.6953 1450.83 73.6953V71.4306L1450.84 71.4174ZM1577.4 101.348C1579.15 101.626 1580.9 101.891 1582.63 102.182C1581.38 103.228 1580.1 104.261 1578.83 105.268C1577.24 105.255 1575.66 105.228 1574.06 105.215C1575.19 103.944 1576.3 102.659 1577.4 101.348ZM1580.64 97.2688C1581.08 96.5272 1582.24 94.6863 1584.09 92.0509C1586.24 92.6733 1588.39 93.3222 1590.53 93.9844C1588.88 96.0372 1587.87 97.441 1587.49 97.9707C1587.36 98.1032 1587.21 98.2224 1587.06 98.3548C1584.93 97.984 1582.79 97.6264 1580.64 97.2821V97.2688ZM1593.7 90.21C1591.44 89.4949 1589.18 88.8194 1586.93 88.1572C1588.27 86.3694 1589.83 84.3696 1591.59 82.2241C1593.85 83.1644 1596.09 84.1312 1598.33 85.1245C1596.57 86.9653 1595.03 88.687 1593.7 90.21ZM1304.97 84.4226C1304.25 85.151 1303.53 85.9058 1302.81 86.6475C1301.83 86.6475 1300.85 86.621 1299.87 86.621C1300.7 86.025 1301.55 85.4291 1302.41 84.8464C1303.27 84.7139 1304.11 84.5682 1304.97 84.4358V84.4226ZM1284.26 93.1633C1282.86 92.9117 1281.49 92.6601 1280.1 92.4084C1281.05 91.9052 1282 91.4284 1282.95 90.9384C1284.23 90.9516 1285.51 90.9781 1286.79 90.9914C1285.95 91.7065 1285.1 92.4349 1284.26 93.1633ZM1268.82 94.7923C1268.2 95.4412 1267.45 96.2093 1266.58 97.0702C1264.64 96.355 1262.75 95.6001 1260.84 94.8452C1261.58 94.2493 1262.16 93.7725 1262.57 93.4017C1264.64 93.8785 1266.72 94.342 1268.82 94.779V94.7923ZM1262.9 100.54C1261.75 101.573 1260.5 102.672 1259.13 103.838C1257.11 102.765 1255.1 101.679 1253.1 100.54C1254.39 99.6659 1255.57 98.8448 1256.61 98.0767C1258.69 98.9243 1260.79 99.7454 1262.9 100.54ZM1248.71 97.9972C1246.94 96.9377 1245.19 95.8518 1243.44 94.7525C1244.4 94.289 1245.26 93.852 1246.06 93.4414C1247.93 94.3155 1249.8 95.1631 1251.69 95.9842C1250.76 96.6331 1249.78 97.2953 1248.71 97.9972ZM1244.42 100.712C1243.11 101.52 1241.71 102.354 1240.22 103.202C1238.34 101.758 1236.46 100.288 1234.6 98.7654C1236.03 98.1694 1237.33 97.5867 1238.57 97.0304C1240.5 98.2886 1242.45 99.5202 1244.41 100.712H1244.42ZM1235.88 105.626C1234.29 106.473 1232.6 107.347 1230.86 108.221C1228.89 106.38 1226.93 104.513 1224.98 102.566C1226.68 101.944 1228.29 101.321 1229.82 100.725C1231.82 102.394 1233.85 104.036 1235.88 105.626ZM1226.45 110.353C1225.66 110.724 1224.88 111.095 1224.06 111.466C1200.43 122.18 1165.19 132.748 1118.04 132.748C1082.09 132.748 1039.19 126.59 989.242 109.625C1032.45 118.67 1070.32 122.101 1102.87 122.101C1156.42 122.101 1195.5 112.856 1220.24 104.275C1222.3 106.354 1224.37 108.38 1226.45 110.353ZM1221.49 99.017C1219.83 97.2821 1218.16 95.5074 1216.51 93.6931C1217.99 93.3752 1219.38 93.0574 1220.73 92.7395C1222.43 94.3288 1224.15 95.865 1225.88 97.3748C1224.47 97.9178 1223.01 98.4607 1221.48 99.017H1221.49ZM1211.35 94.779C1213.14 96.7921 1214.94 98.7521 1216.75 100.672C1192.37 108.897 1154.44 117.558 1102.85 117.558C1069.13 117.558 1029.56 113.837 984.124 103.877C1015.45 106.38 1043.95 107.4 1069.58 107.4C1136.21 107.4 1183.53 100.5 1211.34 94.779H1211.35ZM1118.05 137.291C1166.67 137.291 1202.97 126.193 1227.13 115.068C1228.14 114.605 1229.08 114.141 1230.05 113.691C1232.32 115.757 1234.59 117.743 1236.87 119.69C1236.22 120.087 1235.56 120.472 1234.9 120.869C1211.39 134.563 1176.3 148.084 1129.15 148.084C1092.04 148.084 1047.44 139.701 995.099 116.353C1042.39 131.636 1083.36 137.304 1118.06 137.304L1118.05 137.291ZM1234.44 111.506C1236.34 110.539 1238.14 109.585 1239.84 108.645C1242.06 110.3 1244.3 111.89 1246.55 113.439C1244.77 114.658 1242.92 115.903 1240.96 117.147C1238.78 115.32 1236.6 113.439 1234.46 111.492L1234.44 111.506ZM1244.18 106.168C1245.83 105.202 1247.39 104.248 1248.84 103.334C1250.99 104.579 1253.14 105.784 1255.32 106.95C1253.81 108.142 1252.22 109.373 1250.48 110.632C1248.37 109.188 1246.26 107.692 1244.18 106.168ZM1259.73 109.268C1262 110.433 1264.28 111.559 1266.58 112.658C1264.95 114.234 1263.19 115.889 1261.3 117.584C1259.03 116.207 1256.77 114.803 1254.53 113.333C1256.39 111.943 1258.13 110.579 1259.74 109.281L1259.73 109.268ZM1263.51 106.089C1265.09 104.725 1266.48 103.467 1267.72 102.315C1269.91 103.096 1272.1 103.864 1274.31 104.606C1273.04 106.023 1271.6 107.586 1270 109.228C1267.84 108.208 1265.68 107.175 1263.53 106.089H1263.51ZM1279.04 106.155C1281.3 106.87 1283.56 107.546 1285.81 108.208C1284.47 109.996 1282.91 111.996 1281.15 114.141C1278.9 113.214 1276.65 112.234 1274.41 111.241C1276.17 109.4 1277.71 107.678 1279.04 106.155ZM1567.77 111.943C1568.5 111.214 1569.21 110.459 1569.93 109.718C1570.91 109.718 1571.89 109.744 1572.87 109.744C1572.03 110.34 1571.2 110.936 1570.34 111.519C1569.48 111.651 1568.63 111.797 1567.77 111.929V111.943ZM1588.49 103.202C1589.88 103.454 1591.25 103.705 1592.64 103.957C1591.7 104.46 1590.74 104.937 1589.79 105.427C1588.51 105.414 1587.24 105.387 1585.95 105.374C1586.79 104.659 1587.64 103.93 1588.49 103.202ZM1603.92 101.573C1604.54 100.924 1605.29 100.156 1606.16 99.2951C1608.1 100.01 1609.99 100.765 1611.9 101.52C1611.16 102.116 1610.58 102.593 1610.17 102.964C1608.1 102.487 1606.02 102.023 1603.92 101.586V101.573ZM1609.85 95.8253C1610.99 94.7923 1612.24 93.6931 1613.61 92.5276C1615.64 93.6004 1617.64 94.6863 1619.64 95.8253C1618.35 96.6993 1617.17 97.5205 1616.13 98.2886C1614.05 97.441 1611.95 96.6199 1609.85 95.8253ZM1624.03 98.368C1625.81 99.4275 1627.55 100.514 1629.3 101.613C1628.34 102.076 1627.48 102.513 1626.68 102.924C1624.81 102.05 1622.94 101.202 1621.05 100.381C1621.98 99.7321 1622.96 99.0699 1624.03 98.368ZM1628.32 95.6531C1629.63 94.8453 1631.03 94.0109 1632.52 93.1633C1634.4 94.6069 1636.28 96.0769 1638.14 97.5999C1636.71 98.1959 1635.41 98.7786 1634.17 99.3348C1632.24 98.0767 1630.29 96.845 1628.32 95.6531ZM1636.86 90.7397C1638.45 89.8922 1640.14 89.0181 1641.89 88.144C1643.85 89.9849 1645.81 91.8522 1647.76 93.799C1646.06 94.4215 1644.45 95.0439 1642.92 95.6399C1640.92 93.9712 1638.89 92.329 1636.86 90.7397ZM1651.25 97.3615C1652.92 99.0964 1654.58 100.871 1656.23 102.685C1654.76 103.003 1653.36 103.321 1652.02 103.639C1650.31 102.05 1648.59 100.513 1646.86 99.0037C1648.27 98.4607 1649.73 97.9178 1651.26 97.3615H1651.25ZM1664.82 105.533C1692.64 99.9705 1738.8 93.5209 1803.15 93.5209C1829.98 93.5209 1859.98 94.6466 1893.12 97.4277C1814.31 102.685 1753.73 106.235 1711.96 108.513C1694.31 109.479 1680.04 110.208 1669.16 110.751C1667.72 108.976 1666.28 107.241 1664.82 105.546V105.533ZM1743.61 43.7648C1694.79 43.7648 1658.46 58.0149 1634.38 72.2782C1633.62 72.7285 1632.89 73.1655 1632.16 73.6158C1629.74 71.6558 1627.32 69.7487 1624.89 67.9211C1625.71 67.3119 1626.54 66.7159 1627.4 66.1067C1651.09 49.3933 1686.43 32.9448 1734.1 32.9448C1771.93 32.9448 1817.6 43.3278 1871.44 72.3577C1822.05 51.4593 1779.48 43.7648 1743.62 43.7648H1743.61ZM1628.09 76.1718C1626.01 77.5227 1624.02 78.8603 1622.15 80.1846C1619.8 78.6219 1617.42 77.1121 1615.06 75.6553C1616.95 74.0528 1618.97 72.4106 1621.1 70.7684C1623.44 72.5166 1625.78 74.3045 1628.09 76.1718ZM1610.93 73.1655C1608.49 71.722 1606.03 70.3314 1603.57 68.9938C1605.56 66.994 1607.7 64.9545 1609.94 62.9018C1612.38 64.5307 1614.83 66.2127 1617.26 67.9608C1615.02 69.7222 1612.91 71.4571 1610.92 73.1655H1610.93ZM1607.35 76.3307C1605.32 78.1584 1603.45 79.9462 1601.74 81.6414C1599.39 80.5819 1597.04 79.5489 1594.68 78.5557C1596.38 76.5824 1598.25 74.5164 1600.28 72.3842C1602.64 73.6555 1605 74.9667 1607.35 76.3307ZM1273.68 90.7662C1273.52 90.8589 1273.35 90.9516 1273.19 91.0443C1272.76 90.9516 1272.33 90.8589 1271.88 90.7795C1271.94 90.7795 1271.98 90.753 1272.03 90.7397C1272.58 90.7397 1273.13 90.753 1273.68 90.7662ZM1257 92.0641C1256.69 92.3157 1256.35 92.5674 1256 92.8322C1254.34 92.1303 1252.67 91.4284 1251.03 90.7C1251.1 90.6603 1251.15 90.6206 1251.22 90.5808C1253.12 91.0841 1255.05 91.5741 1257 92.0509V92.0641ZM1240.89 90.9119C1240.3 91.2033 1239.67 91.4946 1239.01 91.8125C1237.67 90.9119 1236.34 89.9981 1235.01 89.0578C1235.53 88.9121 1236 88.7665 1236.46 88.634C1237.92 89.4021 1239.4 90.1703 1240.89 90.9119ZM1234.13 93.9977C1233.04 94.4744 1231.89 94.9512 1230.69 95.4412C1229.16 94.1301 1227.63 92.7793 1226.13 91.4019C1227.27 91.1238 1228.34 90.8457 1229.36 90.5808C1230.95 91.7463 1232.53 92.872 1234.15 93.9844L1234.13 93.9977ZM1208.89 80.7938C1207.87 80.8468 1206.82 80.8998 1205.72 80.9528C1205.07 80.1449 1204.44 79.3238 1203.8 78.4894C1205.06 78.6881 1206.24 78.9 1207.33 79.0854C1207.84 79.6549 1208.37 80.2243 1208.89 80.7938ZM1129.15 152.561C1177.96 152.561 1214.29 138.311 1238.38 124.047C1239.13 123.597 1239.87 123.16 1240.59 122.71C1243.01 124.67 1245.43 126.577 1247.86 128.404C1247.04 129.014 1246.21 129.61 1245.35 130.219C1221.67 146.932 1186.32 163.381 1138.66 163.381C1100.83 163.381 1055.15 152.998 1001.32 123.968C1050.7 144.866 1093.28 152.561 1129.13 152.561H1129.15ZM1244.67 120.154C1246.75 118.803 1248.74 117.465 1250.6 116.141C1252.95 117.704 1255.33 119.213 1257.7 120.67C1255.8 122.273 1253.79 123.915 1251.65 125.557C1249.31 123.809 1246.98 122.021 1244.67 120.154ZM1261.82 123.16C1264.27 124.604 1266.72 125.994 1269.18 127.332C1267.19 129.332 1265.06 131.371 1262.81 133.424C1260.37 131.795 1257.92 130.113 1255.49 128.365C1257.74 126.603 1259.85 124.868 1261.83 123.16H1261.82ZM1265.41 119.995C1267.44 118.154 1269.3 116.379 1271.01 114.684C1273.36 115.744 1275.71 116.777 1278.06 117.77C1276.36 119.743 1274.49 121.809 1272.46 123.941C1270.1 122.67 1267.75 121.359 1265.39 119.995H1265.41ZM1599.07 105.559C1599.23 105.467 1599.41 105.374 1599.57 105.281C1600 105.374 1600.43 105.467 1600.87 105.546C1600.82 105.546 1600.78 105.573 1600.72 105.586C1600.17 105.586 1599.62 105.573 1599.07 105.559ZM1615.76 104.261C1616.07 104.01 1616.4 103.758 1616.75 103.493C1618.42 104.195 1620.08 104.897 1621.72 105.626C1621.65 105.665 1621.6 105.705 1621.53 105.745C1619.64 105.241 1617.7 104.751 1615.76 104.275V104.261ZM1631.86 105.414C1632.46 105.122 1633.09 104.831 1633.75 104.513C1635.09 105.414 1636.42 106.327 1637.75 107.268C1637.22 107.413 1636.75 107.559 1636.3 107.692C1634.83 106.923 1633.36 106.155 1631.86 105.414ZM1638.62 102.328C1639.71 101.851 1640.87 101.374 1642.06 100.884C1643.59 102.195 1645.12 103.546 1646.63 104.924C1645.49 105.202 1644.41 105.48 1643.39 105.745C1641.81 104.579 1640.22 103.454 1638.61 102.341L1638.62 102.328ZM1663.86 115.532C1664.89 115.479 1665.93 115.426 1667.03 115.373C1667.68 116.181 1668.31 117.002 1668.96 117.836C1667.69 117.637 1666.51 117.426 1665.42 117.24C1664.91 116.671 1664.39 116.101 1663.86 115.532ZM1617.11 56.6905C1641.11 36.9444 1676.91 17.569 1725.35 17.5558C1763.65 17.5558 1809.99 29.7001 1864.72 63.6831C1814.17 37.8847 1770.67 28.389 1734.1 28.389C1684.55 28.389 1647.84 45.8043 1623.58 63.2196C1622.72 63.8288 1621.88 64.4513 1621.05 65.0605C1618.52 63.2329 1616 61.4582 1613.46 59.763C1614.64 58.73 1615.85 57.697 1617.11 56.6773V56.6905ZM1438.63 24.6146C1450.84 22.4427 1461.16 21.3302 1468.41 20.774C1472.04 20.4959 1474.89 20.3502 1476.83 20.2707C1477.8 20.231 1478.55 20.2177 1479.05 20.2045C1479.31 20.2045 1479.49 20.2045 1479.62 20.2045C1479.74 20.2045 1479.79 20.2045 1479.79 20.2045V17.9399L1479.86 20.2045L1479.8 18.7345L1479.83 20.2045C1481.13 20.2045 1510.9 20.3634 1549.69 33.4746C1567.21 39.4077 1586.56 47.9763 1605.99 60.359C1603.64 62.5309 1601.42 64.6764 1599.37 66.7821C1579.48 56.4257 1559.6 49.2874 1541.63 44.374C1502.4 33.6732 1472.15 33.5143 1470.22 33.501H1470.13C1470.04 33.501 1439.81 33.6335 1401.21 41.381C1385.15 44.6124 1367.63 49.1814 1350.22 55.6046C1350.75 55.3 1351.29 54.9821 1351.84 54.6775C1382.18 37.6065 1414.2 28.9717 1438.64 24.6279L1438.63 24.6146ZM1228.87 84.4358C1229.5 84.8066 1230.16 85.1642 1230.8 85.535C1230.64 85.5748 1230.47 85.6277 1230.29 85.6675C1229.75 85.2701 1229.23 84.8464 1228.69 84.4358C1228.75 84.4358 1228.81 84.4358 1228.85 84.4358H1228.87ZM1171.88 59.4982C1173.46 60.2928 1174.96 61.0742 1176.39 61.8555C1161.37 57.9354 1141.3 54.6113 1116.34 54.6113C1078.73 54.6113 1030.07 62.1734 971.146 86.5415C1024 54.1345 1068.1 43.9105 1102.79 43.9105C1133.09 43.9105 1156.27 51.7109 1171.88 59.4849V59.4982ZM1255.63 139.675C1231.63 159.421 1195.83 178.796 1147.39 178.809C1109.09 178.809 1062.77 166.665 1008.04 132.682C1058.59 158.467 1102.09 167.976 1138.64 167.976C1188.19 167.976 1224.9 150.561 1249.17 133.146C1250.03 132.536 1250.86 131.914 1251.69 131.305C1254.22 133.132 1256.74 134.907 1259.28 136.602C1258.1 137.635 1256.89 138.655 1255.63 139.688V139.675ZM1434.11 171.751C1421.9 173.923 1411.58 175.035 1404.33 175.591C1400.7 175.869 1397.85 176.015 1395.91 176.095C1394.94 176.134 1394.19 176.148 1393.69 176.161C1393.44 176.161 1393.25 176.161 1393.13 176.161C1393.01 176.161 1392.95 176.161 1392.95 176.161H1392.9C1391.59 176.161 1361.82 176.002 1323.04 162.891C1305.52 156.958 1286.16 148.389 1266.74 136.006C1269.09 133.834 1271.31 131.689 1273.36 129.583C1293.24 139.94 1313.13 147.078 1331.1 151.991C1370.33 162.692 1400.58 162.851 1402.5 162.864H1402.58C1402.7 162.864 1432.92 162.732 1471.51 154.984C1487.58 151.753 1505.1 147.184 1522.51 140.761C1521.97 141.065 1521.44 141.383 1520.88 141.688C1490.55 158.759 1458.52 167.394 1434.09 171.737L1434.11 171.751ZM1643.87 111.929C1643.24 111.559 1642.58 111.201 1641.94 110.83C1642.1 110.791 1642.28 110.738 1642.45 110.698C1642.99 111.095 1643.51 111.519 1644.05 111.929C1644 111.929 1643.93 111.929 1643.89 111.929H1643.87ZM1700.86 136.867C1699.28 136.072 1697.79 135.291 1696.35 134.496C1711.37 138.417 1731.44 141.741 1756.4 141.741C1794.01 141.741 1842.67 134.179 1901.6 109.81C1848.75 142.217 1804.64 152.442 1769.95 152.442C1739.65 152.442 1716.47 144.641 1700.86 136.867Z" fill="url(#paint1_linear_4545_22639)"/>
<rect width="1920" height="197" fill="url(#paint2_linear_4545_22639)"/>
<defs>
<linearGradient id="paint0_linear_4545_22639" x1="0.0537366" y1="98.1561" x2="967.312" y2="98.1561" gradientUnits="userSpaceOnUse">
<stop offset="0.14" stop-color="#FFF200"/>
<stop offset="0.26" stop-color="#F58220"/>
<stop offset="0.3" stop-color="#F58220"/>
<stop offset="0.37" stop-color="#08B798"/>
<stop offset="0.65" stop-color="#00B49D"/>
<stop offset="0.7" stop-color="#F58220"/>
<stop offset="0.75" stop-color="#F58220"/>
<stop offset="1" stop-color="#C6168D"/>
</linearGradient>
<linearGradient id="paint1_linear_4545_22639" x1="952.755" y1="98.1561" x2="1920.01" y2="98.1561" gradientUnits="userSpaceOnUse">
<stop offset="0.14" stop-color="#FFF200"/>
<stop offset="0.26" stop-color="#F58220"/>
<stop offset="0.3" stop-color="#F58220"/>
<stop offset="0.37" stop-color="#08B798"/>
<stop offset="0.65" stop-color="#00B49D"/>
<stop offset="0.7" stop-color="#F58220"/>
<stop offset="0.75" stop-color="#F58220"/>
<stop offset="1" stop-color="#C6168D"/>
</linearGradient>
<linearGradient id="paint2_linear_4545_22639" x1="-1.06107e-06" y1="102.046" x2="1918.72" y2="50.6844" gradientUnits="userSpaceOnUse">
<stop stop-color="#10172B" stop-opacity="0.25"/>
<stop offset="0.5" stop-color="#10172B"/>
<stop offset="1" stop-color="#10172B" stop-opacity="0.25"/>
</linearGradient>
</defs>
</svg>
